<?xml version="1.0" encoding="UTF-8"?>
<svg id="Layer_1" data-name="Layer 1" xmlns="http://www.w3.org/2000/svg" viewBox="0 0 392.14 395.37">
  <defs>
    <style>
      .cls-1 {
        fill: #f26a35;
      }

      .cls-1, .cls-2 {
        stroke-width: 0px;
      }

      .cls-2 {
        fill: #010101;
      }
    </style>
  </defs>
  <path class="cls-1" d="m116.64,90.6c.05.43.1.87.14,1.31.03.31.06.61.09.91,7.16-3.61,14.44-6.94,21.65-9.92,6.63-2.74,12.87-5.06,19.06-7.08.06-.02.11-.04.15-.05,0-.04,0-.08.01-.14.13-2.38.46-4.87,1.02-7.6,3.56-17.32,11.58-31.54,23.83-42.24,9.48-8.28,20.87-14.02,33.94-17.1-3.33-.33-6.62-.56-9.91-.69-.91-.04-1.8-.07-2.69-.09-.28,0-.55-.01-.83-.02-.61-.02-1.21-.03-1.81-.04-.32,0-.63-.01-.94-.01-.55,0-1.1-.01-1.65-.02-.32,0-.64,0-.95,0-.19,0-.38,0-.57,0-.23,0-.46,0-.69,0-.6,0-1.19,0-1.78.01-.38,0-.75.01-1.13.02-.59.01-1.18.02-1.76.04-.35,0-.71.02-1.06.03-.62.02-1.24.05-1.85.07-.3.01-.59.02-.89.04-.9.04-1.79.09-2.68.15-6.49.42-13,1.15-19.36,2.16-12.55,1.99-25.37,5.38-38.09,10.1-1.31.49-2.31,1.25-3.22,2.46-.36.47-.7.96-1.03,1.45h0c-.05.08-.11.16-.16.23-.04.07-.08.13-.13.2-.28.43-.56.88-.83,1.33h0c-.06.1-.12.2-.17.3-.3.51-.58,1.04-.86,1.57-.08.16-.17.32-.25.48-.33.67-.65,1.35-.96,2.05-.05.12-.1.25-.15.38-.25.6-.5,1.22-.73,1.85-.07.2-.15.4-.22.61-.27.76-.53,1.53-.77,2.33-1.42,4.69-2.37,9.83-2.91,15.73-.56,6.12-.74,11.82-.54,17.43.27,7.76.83,14.88,1.68,21.77Z"/>
  <path class="cls-1" d="m55.22,134.43c5.05-4.59,9.9-8.62,14.84-12.34.22-.17.29-.26.29-.27,0,0,.03-.03-.04-.46-.89-5.09-2.09-11.09-4.29-16.93-1.34-3.56-3.14-7.64-6.38-10.92-2.57-2.61-5.43-3.9-8.69-3.9-1.13,0-2.31.16-3.54.46-3.63.91-6.76,2.75-9.33,4.42-.72.47-1.27,1.05-1.73,1.83-8.97,15.08-15.94,30.89-20.72,46.97-4.67,15.69-7.27,31.71-7.73,47.61-.2,6.93-.07,13.33.41,19.47.12-.66.24-1.32.38-1.97,2.5-12.24,7.15-23.89,14.2-35.59,8.07-13.38,18.64-25.94,32.33-38.39Z"/>
  <path class="cls-1" d="m58.18,83.37c3.51,2.01,6.69,4.85,10.02,8.94,1.52,1.87,2.96,3.83,4.33,5.91,3.03,4.59,5.77,9.78,8.39,15.89,8.54-5.87,17.19-11.21,25.73-15.88,0-.03,0-.06-.01-.09-1.05-8.7-1.63-17.24-1.73-25.38-.04-3.59,0-6.98.16-10.2.04-.89.09-1.76.15-2.62.39-6.03,1.15-11.48,2.31-16.66.92-4.12,2.04-7.79,3.41-11.11.82-1.99,1.73-3.86,2.74-5.63-1.23.59-2.46,1.18-3.67,1.79-2.43,1.22-4.83,2.49-7.19,3.81-15.35,8.57-29.24,19.19-41.43,31.69-5.33,5.47-10.34,11.33-14.93,17.48,1.08-.24,2.17-.35,3.26-.35,2.83,0,5.67.8,8.47,2.4Z"/>
  <path class="cls-1" d="m195.99,27.93c-.63.45-1.24.91-1.86,1.39-1.4,1.08-2.76,2.21-4.09,3.39-11.39,10.13-18.45,22.88-20.99,37.9-.06.35-.13.69-.21,1.04-.06.26-.11.51-.15.75,13.69-3.72,28.18-6.54,43.07-8.36,10.37-1.27,21.14-2.03,32.92-2.33,1.44-.04,2.89-.05,4.33-.05,5.75,0,11.41.26,16.75.56,6.85.38,13.97,1.12,21.16,2.21,11.52,1.74,21.93,4.28,31.82,7.78,13.03,4.6,23.97,10.48,33.45,17.98.37.29.73.58,1.09.88-8.26-12.69-17.75-24.09-28.3-33.96-22.72-21.26-50.09-35.99-81.33-43.79-1.05-.26-2.03-.36-3.02-.31-4.72.25-8.57.67-12.12,1.32-11.47,2.12-21.77,6.27-30.74,12.37-.6.41-1.19.82-1.78,1.25Z"/>
  <polygon class="cls-1" points="360.91 100.14 360.91 100.14 360.92 100.14 360.91 100.14"/>
  <path class="cls-1" d="m377.54,145.21c-1-3.82-1.94-7.42-3.53-10.84-6.19-13.37-15.19-24.84-26.73-34.09-9.92-7.94-21.25-14.09-34.64-18.79-16.67-5.85-35.13-8.98-56.45-9.56-8.42-.23-17.37.07-27.38.92-6.67.57-13.26,1.35-19.57,2.32-11.23,1.74-22.49,4.12-33.46,7.09-2.16.58-4.31,1.2-6.46,1.81l-1.23.35c.39,7.91,2.16,15.44,5.27,22.4.47,1.06.98,2.12,1.51,3.17.53,1.05,1.1,2.1,1.69,3.14.89,1.56,1.86,3.11,2.89,4.66.39.58.79,1.16,1.19,1.73.36.5.72,1.01,1.09,1.51,2.61,3.52,5.6,7.01,9.01,10.51,2.44,2.51,5.03,4.97,7.85,7.45.94.83,1.9,1.65,2.89,2.49,1.32,1.11,2.69,2.23,4.11,3.36,1.9,1.51,3.89,3.03,6,4.6,11.46,8.5,23.21,16.08,36.27,24.4l5.24,3.33c11.98,7.61,24.37,15.49,36.17,23.87,18.33,13.04,32.31,25.35,44,38.74,7.62,8.73,13.51,16.55,18.21,24.21.31.51.62,1.02.92,1.53.69,1.17,1.36,2.33,2,3.49,3.97,7.2,6.44,13.51,7.7,19.72,6.26-12.14,11.3-25.01,15-38.31,3.8-13.7,6.15-27.91,6.97-42.22.4-6.95.46-13.2.17-19.1-.3-6.1-.69-11.15-1.25-15.88-1.06-8.96-2.73-17.74-4.96-26.1-.17-.63-.33-1.26-.5-1.9Z"/>
  <path class="cls-1" d="m344.32,271.17c-6.52-12.6-15.74-24.46-28.19-36.23-9.65-9.12-20.97-18.03-35.63-28.02-11.61-7.91-23.78-15.42-35.55-22.69l-4.27-2.64c-5.23-3.24-10.26-6.36-15.15-9.47-8.14-5.18-15.88-10.31-23.46-15.81-7.17-5.2-12.97-10.03-17.89-14.94-2.95-2.94-5.58-5.91-7.99-9-8.53-10.92-14.03-22.14-16.84-34.3-.81-3.49-1.34-6.92-1.63-10.42-13.49,4.49-26.6,9.81-39,15.82-.1.05-.21.1-.31.15.02.11.04.23.05.32l.14.89c.53,3.26,1.08,6.62,1.69,9.91,2.84,15.23,6.41,30.81,10.89,47.65,4.27,16.04,9.03,31.73,13.55,46.29,6.92,22.35,14.84,43.86,23.52,63.91,8.37,19.33,17.94,37.67,26.2,53.05,6.26,11.65,12.06,20.97,18.25,29.31,6.19,8.34,11.62,14.15,17.6,18.84,5.27,4.13,10.11,6.58,15.21,7.69.24.05.48.11.72.17,1.06.25,2.06.48,2.89.28l.84-.2c2.32-.56,4.73-1.13,6.98-1.91,33.8-11.73,62.24-31.71,84.55-59.37,4.39-5.44,8.61-11.37,12.53-17.61.38-.61.41-.7.39-.86-1.7-10.78-5.1-21.15-10.1-30.82Z"/>
  <path class="cls-1" d="m201.85,362.99c-.45-.56-.9-1.12-1.35-1.69-6.7-8.54-13.04-18.37-19.83-30.74-7.6-13.86-14.63-28.71-21.41-45.21-.97-2.36-1.93-4.75-2.89-7.17-16.84-42.68-30.41-85.58-40.36-127.52-2.63-11.09-4.73-21.47-6.42-31.75-.41-2.51-.8-5.02-1.19-7.53-.12-.81-.25-1.62-.37-2.43-8.15,4.37-16.15,9.2-23.82,14.35.21.66.4,1.32.58,1.98.53,1.98.92,3.96,1.15,5.91.31,2.6.58,5.33.81,8.27.14,1.76.26,3.59.37,5.51.42,7.38.34,15.36-.26,25.12-.39,6.28-1.04,13.01-2,20.59-.72,5.72-1.53,11.56-2.41,17.37-.37,2.42-.74,4.85-1.12,7.27-.52,3.34-1.06,6.79-1.55,10.19-.88,6.03-1.63,12.39-2.3,19.43-.66,6.93-1.05,14.07-1.19,21.83-.16,8.7.26,17.65,1.24,26.6,1.04,9.44,2.7,17.95,5.07,26.01,4.87,16.58,12.29,29.83,22.69,40.5.29.29.57.59.85.88,1.62,1.69,3.15,3.29,5.06,4.31,6.04,3.23,12.41,6.19,18.94,8.79,18.79,7.49,38.48,11.96,58.65,13.33,1.34.09,2.69.17,4.04.23,1.44.07,2.88.12,4.32.16,4.87.12,10.19.03,16.27-.29,5-.26,10.08-.75,15.17-1.46-2.46-1.13-4.91-2.53-7.42-4.24-6.59-4.5-12.73-10.4-19.33-18.58Z"/>
  <path class="cls-1" d="m78.74,338.91c-5.48-11.42-9.12-24.3-11.35-40.05-.73-5.17-1.27-10.66-1.59-16.31-.27-4.69-.53-10.23-.48-15.82.1-9.5.52-17.99,1.29-25.93.46-4.76,1.12-11.04,2.09-17.29.66-4.23,1.4-9.25,1.89-14.37.47-4.99.87-10.09,1.24-14.89.75-9.81,1.03-19.67,1.2-28.02.03-1.24.04-2.48.05-3.73.02-2.51,0-5.04-.05-7.61-.13-6.41-.47-12.99-1.02-19.66-.04-.48-.07-.96-.1-1.44-.03-.49-.06-.96-.1-1.43-6.99,5.41-13.3,10.94-19.07,16.71-.82.83-1.64,1.66-2.44,2.49-.92.95-1.82,1.92-2.71,2.89-1.02,1.11-2.02,2.23-3.01,3.36-9.49,10.87-16.62,21.8-21.8,33.42-5.41,12.13-8.33,24.76-8.68,37.52-.11,4.1.11,8.36.7,13.04.56,4.47,1.37,9.72,3.14,14.74,12.74,36.13,34.58,66.43,64.99,90.19-.6-1-1.17-1.99-1.72-2.99-.86-1.58-1.68-3.18-2.46-4.81Z"/>
  <path class="cls-2" d="m360.4,87.6c-6.71-10.42-14.42-20.2-23.09-29.29-18.81-19.71-41.87-34.98-68.53-45.39-11.89-4.64-24.82-8.01-40.68-10.61C220.14,1.02,211.54.26,201.8,0c-.04,0-.08,0-.13,0h-8.39s-.1,0-.15,0c-8.99.23-17.89,1-26.46,2.3-13.13,1.99-25.93,5.2-38.04,9.56-26.63,9.57-50.11,24.2-69.81,43.46-15.61,15.27-28.64,33.7-38.71,54.77C8.38,134.63,1.72,160.17.29,186c-.69,12.51-.15,25,1.59,37.11,1.76,12.2,4.56,23.97,8.33,35,10.58,30.92,28.1,58.24,52.07,81.2,14.83,14.2,31.62,26,49.88,35.06,25.73,12.76,53.16,19.79,81.53,20.87.04,0,.07,0,.12,0,2.96.1,6.02.14,9.16.13,2.33-.01,4.61-.05,6.84-.13.02,0,.07,0,.08,0,15.44-.55,31.02-2.93,46.3-7.05,6.94-1.87,13.62-4.71,19.8-7.49,33.26-14.97,60.71-38.14,81.59-68.87,2.81-4.14,5.31-8.51,7.72-12.73.47-.82.93-1.63,1.4-2.45,2.6-4.51,5.11-9.6,7.92-16,2.37-5.39,4.51-10.92,6.39-16.42,1.88-5.53,3.57-11.28,5.03-17.07,2.58-10.28,4.38-21.07,5.37-32.07.11-1.27.16-2.54.2-3.76.05-1.47.1-2.86.26-4.25.89-17.65-.07-42.93-9-71.33-7.39-23.51-17.46-40.35-22.48-48.14Zm.51,12.54s0,0,0,0h0s0,0,0,0ZM228.51,14.32c3.55-.66,7.4-1.08,12.12-1.32.98-.05,1.97.05,3.02.31,31.25,7.8,58.61,22.53,81.33,43.79,10.55,9.87,20.04,21.27,28.3,33.96-.36-.3-.72-.59-1.09-.88-9.48-7.5-20.42-13.38-33.45-17.98-9.89-3.49-20.3-6.04-31.82-7.78-7.18-1.08-14.3-1.83-21.16-2.21-5.34-.3-11-.56-16.75-.56-1.44,0-2.88.02-4.33.05-11.78.3-22.55,1.06-32.92,2.33-14.89,1.82-29.38,4.64-43.07,8.36.04-.24.1-.49.15-.75.07-.35.15-.7.21-1.04,2.54-15.01,9.61-27.76,20.99-37.9,1.33-1.18,2.69-2.31,4.09-3.39.61-.47,1.23-.93,1.86-1.39.59-.42,1.18-.84,1.78-1.25,8.97-6.1,19.27-10.25,30.74-12.37Zm-113.02,37.08c.54-5.9,1.49-11.05,2.91-15.73.24-.8.5-1.57.77-2.33.07-.21.15-.41.22-.61.23-.63.48-1.25.73-1.85.05-.12.1-.25.15-.38.3-.7.62-1.38.96-2.05.08-.16.17-.32.25-.48.28-.54.56-1.06.86-1.57.06-.1.12-.2.17-.3h0c.27-.45.54-.89.83-1.33.04-.07.08-.13.13-.2.05-.08.11-.15.16-.23h0c.33-.5.68-.99,1.03-1.46.91-1.22,1.91-1.97,3.22-2.46,12.72-4.72,25.53-8.11,38.09-10.1,6.36-1.01,12.87-1.73,19.36-2.16.88-.06,1.78-.11,2.68-.15.29-.01.59-.03.89-.04.61-.03,1.23-.05,1.85-.07.35-.01.71-.02,1.06-.03.58-.02,1.17-.03,1.76-.04.37,0,.75-.01,1.13-.02.59,0,1.18-.01,1.78-.01.23,0,.46,0,.69,0,.19,0,.38,0,.57,0,.32,0,.63,0,.95,0,.55,0,1.1,0,1.65.02.31,0,.63,0,.94.01.6.01,1.2.03,1.81.04.28,0,.55.01.83.02.89.03,1.78.06,2.69.09,3.29.13,6.58.36,9.91.69-13.07,3.08-24.47,8.82-33.94,17.1-12.25,10.71-20.27,24.92-23.83,42.24-.56,2.73-.9,5.21-1.02,7.6,0,.06,0,.1-.01.14-.04.02-.09.03-.15.05-6.19,2.03-12.43,4.34-19.06,7.08-7.21,2.98-14.49,6.32-21.65,9.92-.03-.3-.06-.6-.09-.91-.04-.44-.08-.87-.14-1.31-.86-6.89-1.41-14.01-1.68-21.77-.2-5.61-.02-11.31.54-17.43Zm-54.11,12.44c12.19-12.5,26.08-23.12,41.43-31.69,2.36-1.32,4.76-2.59,7.19-3.81,1.22-.61,2.44-1.21,3.67-1.79-1.01,1.77-1.92,3.64-2.74,5.63-1.37,3.32-2.49,6.99-3.41,11.11-1.15,5.18-1.91,10.63-2.31,16.66-.06.86-.1,1.73-.15,2.62-.15,3.22-.2,6.6-.16,10.2.1,8.14.68,16.68,1.73,25.38,0,.04,0,.07.01.09-8.54,4.67-17.19,10.01-25.73,15.88-2.62-6.12-5.36-11.31-8.39-15.89-1.38-2.08-2.82-4.04-4.33-5.91-3.33-4.1-6.52-6.94-10.02-8.94-2.8-1.6-5.63-2.4-8.47-2.4-1.09,0-2.17.12-3.26.35,4.59-6.15,9.6-12.01,14.93-17.48ZM8.69,208.41c-.13.65-.26,1.31-.38,1.97-.47-6.13-.61-12.54-.41-19.47.46-15.9,3.06-31.92,7.73-47.61,4.78-16.08,11.76-31.89,20.72-46.97.46-.78,1.01-1.36,1.73-1.83,2.58-1.67,5.7-3.51,9.33-4.42,1.23-.31,2.41-.46,3.54-.46,3.26,0,6.12,1.29,8.69,3.9,3.24,3.29,5.04,7.37,6.38,10.92,2.2,5.84,3.4,11.84,4.29,16.93.07.43.04.46.04.46,0,.01-.07.1-.29.27-4.94,3.72-9.8,7.75-14.84,12.34-13.69,12.45-24.26,25-32.33,38.39-7.06,11.7-11.7,23.35-14.2,35.59Zm9.24,48.11c-1.77-5.03-2.58-10.27-3.14-14.74-.58-4.68-.81-8.95-.7-13.04.35-12.76,3.27-25.38,8.68-37.52,5.18-11.62,12.31-22.55,21.8-33.42.99-1.13,1.99-2.25,3.01-3.36.89-.97,1.8-1.93,2.71-2.89.8-.84,1.62-1.67,2.44-2.49,5.77-5.77,12.08-11.3,19.07-16.71.04.47.07.94.1,1.43.03.48.06.96.1,1.44.55,6.68.89,13.25,1.02,19.66.05,2.56.07,5.1.05,7.61,0,1.25-.03,2.5-.05,3.73-.17,8.35-.45,18.21-1.2,28.02-.37,4.8-.76,9.9-1.24,14.89-.48,5.12-1.22,10.14-1.89,14.37-.98,6.26-1.63,12.53-2.09,17.29-.77,7.94-1.19,16.43-1.29,25.93-.06,5.58.21,11.13.48,15.82.32,5.66.86,11.15,1.59,16.31,2.23,15.75,5.87,28.64,11.35,40.05.78,1.63,1.6,3.23,2.46,4.81.54,1,1.12,2,1.72,2.99-30.41-23.76-52.25-54.06-64.99-90.19Zm195.51,130.76c-6.08.32-11.4.42-16.27.29-1.44-.04-2.88-.09-4.32-.16-1.35-.06-2.69-.14-4.04-.23-20.16-1.37-39.86-5.84-58.65-13.33-6.53-2.6-12.91-5.56-18.94-8.79-1.91-1.02-3.44-2.62-5.06-4.31-.28-.3-.57-.59-.85-.88-10.4-10.67-17.82-23.92-22.69-40.5-2.37-8.06-4.03-16.57-5.07-26.01-.99-8.95-1.41-17.9-1.24-26.6.14-7.76.53-14.9,1.19-21.83.67-7.04,1.42-13.39,2.3-19.43.49-3.4,1.03-6.85,1.55-10.19.38-2.42.76-4.84,1.12-7.27.88-5.81,1.69-11.65,2.41-17.37.96-7.57,1.61-14.3,2-20.59.6-9.76.69-17.74.26-25.12-.11-1.92-.23-3.75-.37-5.51-.23-2.93-.5-5.67-.81-8.27-.24-1.95-.62-3.93-1.15-5.91-.18-.66-.37-1.32-.58-1.98,7.67-5.15,15.67-9.98,23.82-14.35.12.81.25,1.62.37,2.43.39,2.51.77,5.02,1.19,7.53,1.69,10.27,3.79,20.66,6.42,31.75,9.94,41.94,23.52,84.84,40.36,127.52.96,2.43,1.92,4.82,2.89,7.17,6.77,16.5,13.8,31.35,21.41,45.21,6.79,12.37,13.12,22.2,19.83,30.74.45.57.9,1.13,1.35,1.69,6.6,8.17,12.74,14.08,19.33,18.58,2.5,1.71,4.96,3.12,7.42,4.24-5.09.71-10.17,1.2-15.17,1.46Zm140.6-84.42c-3.93,6.24-8.14,12.16-12.53,17.61-22.3,27.66-50.75,47.64-84.55,59.37-2.26.78-4.66,1.36-6.98,1.91l-.84.2c-.83.2-1.83-.03-2.89-.28-.24-.06-.48-.11-.72-.17-5.1-1.11-9.94-3.55-15.21-7.69-5.98-4.69-11.41-10.5-17.6-18.84-6.19-8.34-11.99-17.66-18.25-29.31-8.26-15.39-17.84-33.72-26.2-53.05-8.68-20.06-16.59-41.56-23.52-63.91-4.51-14.56-9.27-30.25-13.55-46.29-4.49-16.84-8.05-32.42-10.89-47.65-.61-3.29-1.16-6.65-1.69-9.91l-.14-.89c-.01-.09-.03-.21-.05-.32.1-.05.21-.1.31-.15,12.39-6.01,25.51-11.33,39-15.82.29,3.5.83,6.93,1.63,10.42,2.81,12.16,8.32,23.38,16.84,34.3,2.41,3.09,5.04,6.06,7.99,9,4.92,4.9,10.72,9.74,17.89,14.94,7.58,5.5,15.32,10.63,23.46,15.81,4.89,3.11,9.92,6.24,15.15,9.47l4.27,2.64c11.77,7.27,23.94,14.78,35.55,22.69,14.66,9.99,25.98,18.89,35.63,28.02,12.45,11.77,21.67,23.62,28.19,36.23,5,9.67,8.4,20.04,10.1,30.82.03.16,0,.26-.39.86Zm30.22-113.76c.29,5.91.23,12.16-.17,19.1-.82,14.32-3.17,28.52-6.97,42.22-3.69,13.3-8.73,26.17-15,38.31-1.26-6.21-3.73-12.53-7.7-19.72-.64-1.16-1.31-2.33-2-3.49-.3-.51-.61-1.02-.92-1.53-4.7-7.67-10.59-15.48-18.21-24.21-11.69-13.39-25.67-25.7-44-38.74-11.79-8.39-24.18-16.26-36.17-23.87l-5.24-3.33c-13.07-8.32-24.81-15.9-36.27-24.4-2.11-1.56-4.11-3.09-6-4.6-1.42-1.13-2.79-2.25-4.11-3.36-.99-.83-1.95-1.66-2.89-2.49-2.81-2.48-5.41-4.94-7.85-7.45-3.4-3.5-6.4-6.99-9.01-10.51-.37-.5-.74-1.01-1.09-1.51-.41-.58-.81-1.15-1.19-1.73-1.03-1.54-2-3.09-2.89-4.66-.6-1.04-1.16-2.09-1.69-3.14-.53-1.05-1.04-2.11-1.51-3.17-3.11-6.96-4.88-14.49-5.27-22.4l1.23-.35c2.15-.61,4.3-1.22,6.46-1.81,10.97-2.97,22.23-5.35,33.46-7.09,6.31-.98,12.9-1.76,19.57-2.32,10.01-.85,18.96-1.15,27.38-.92,21.32.58,39.78,3.71,56.45,9.56,13.39,4.7,24.72,10.85,34.64,18.79,11.54,9.25,20.54,20.72,26.73,34.09,1.59,3.42,2.53,7.03,3.53,10.84.17.63.33,1.27.5,1.9,2.24,8.36,3.9,17.15,4.96,26.1.56,4.73.96,9.77,1.25,15.88Z"/>
</svg>