<svg xmlns="http://www.w3.org/2000/svg" xmlns:xlink="http://www.w3.org/1999/xlink" width="674.344" height="674.344" viewBox="0 0 674.344 674.344">
  <defs>
    <radialGradient id="a" cx="360.917" cy="234.388" r="336.891" gradientUnits="userSpaceOnUse">
      <stop offset="0" stop-color="gray"/>
      <stop offset="0.103" stop-color="#717171"/>
      <stop offset="0.523" stop-color="#373737"/>
      <stop offset="0.834" stop-color="#131313"/>
      <stop offset="1" stop-color="#050505"/>
    </radialGradient>
  </defs>
  <g>
    <circle cx="337.172" cy="337.172" r="337.172" fill="url(#a)"/>
    <path d="M337.172,659.656c-183.761,0-333.185-147-337.092-329.828Q0,333.491,0,337.172C0,523.387,150.957,674.344,337.172,674.344S674.344,523.387,674.344,337.172q0-3.681-.08-7.344C670.357,512.652,520.933,659.656,337.172,659.656Z" opacity="0.14"/>
    <path d="M204.943,440.073c16.164-8.593,25.525-16.256,25.525-16.256-12.792-18.218-15.416-46.567-15.416-46.567a187.643,187.643,0,0,1-26.937.06,145.467,145.467,0,0,0,2.32,18.859A178.291,178.291,0,0,0,204.943,440.073Z" fill="#fff" opacity="0.04"/>
    <circle cx="337.172" cy="337.172" r="177.917" fill="#fff" opacity="0.95"/>
    <ellipse cx="337.172" cy="199.235" rx="222.997" ry="185.534" fill="#fff" opacity="0.08"/>
    <ellipse cx="179.793" cy="157.779" rx="114.752" ry="76.334" transform="translate(-55.038 112.236) rotate(-30.293)" fill="#fff" opacity="0.08"/>
    <path d="M440.693,217.954c-10.365-4.11-19.144-7.339-25.814-9.693a242.43,242.43,0,0,1-24.017,54.36c21.82,6.214,42.881,15.6,62.962,27.142a292.982,292.982,0,0,0,24.159-55.955C463.606,227.29,450.886,222,440.693,217.954Z" fill="#fff" opacity="0.08"/>
    <path d="M535.172,262.389c-17.271-9.5-33.909-17.784-49.021-24.826q-2.686,8.408-5.785,16.546A291.225,291.225,0,0,1,461.485,294.3a438.562,438.562,0,0,1,60.673,45.11,371.445,371.445,0,0,0,32.5-65.91C548,269.564,541.485,265.862,535.172,262.389Z" fill="#fff" opacity="0.08"/>
    <path d="M480.572,225.211c2.254-7.878,4.025-15.193,5.41-21.7a305.374,305.374,0,0,0,5.829-39.472c-40.315-14.542-68.329-20.683-68.329-20.683,1.207,19.869-1.68,39.2-6.169,56.323,6.755,2.378,15.74,5.677,26.493,9.938C453.888,213.608,466.418,218.816,480.572,225.211Z" fill="#fff" opacity="0.08"/>
    <path d="M565.556,269.617a640.349,640.349,0,0,1,70.434,48.85c4.777-39.628,3.881-69.658,3.371-79.587a546.939,546.939,0,0,0-57.151-34.945,343.641,343.641,0,0,1-12.415,53Q567.787,263.312,565.556,269.617Z" fill="#fff" opacity="0.08"/>
    <path d="M644.743,320.228q-.3,2.455-.621,4.9,3.777,3.156,7.452,6.342,11.768,10.214,22.44,20.746.328-7.484.33-15.048a338.057,338.057,0,0,0-9.272-78.852q-8.141-6.63-16.527-12.821A507.79,507.79,0,0,1,644.743,320.228Z" fill="#fff" opacity="0.08"/>
    <path d="M642.634,335.682a511.759,511.759,0,0,1-15.349,69.285Q621.826,423.32,615.04,440.7c11.174,14.728,20.522,28.076,27.81,38.949a335.135,335.135,0,0,0,30.422-115.41C663.419,354.187,653.141,344.664,642.634,335.682Z" fill="#fff" opacity="0.08"/>
    <path d="M488.768,228.964C504.3,236.174,521.463,244.7,539.3,254.5q9.388,5.162,18.452,10.477c1.268-3.634,2.424-7.126,3.472-10.451a330.541,330.541,0,0,0,12.6-54.984,696.277,696.277,0,0,0-73.323-32.313,317.546,317.546,0,0,1-5.8,38.131Q492.144,217.318,488.768,228.964Z" fill="#fff" opacity="0.08"/>
    <path d="M562.429,278.147A381.761,381.761,0,0,1,544.748,317.8q-7.35,14.226-15.834,27.636c31.4,28.5,58.44,59.618,79.733,86.95a494.057,494.057,0,0,0,25.968-103.42A627.528,627.528,0,0,0,562.429,278.147Z" fill="#fff" opacity="0.08"/>
    <path d="M44.714,288.485S28.692,538.214,297.5,612.982c0,0,53.406-37.384,76.549-113.933C374.052,499.049,172.889,535.432,44.714,288.485Z" fill="#fff" opacity="0.04"/>
    <path d="M528.9,363.635A233.2,233.2,0,0,0,553.427,333.4c-32.525-40.431-61.616-60.095-61.616-60.095-10.877,37.731-74.5,66.1-74.5,66.1,20.631,19.792,38.538,42.366,54.051,66.193C496.12,394.385,515.831,377.27,528.9,363.635Z" fill="#fff" opacity="0.08"/>
    <path d="M576.369,445.523a235.134,235.134,0,0,0,26.662-32.71A394.861,394.861,0,0,0,559.2,340.754a243.187,243.187,0,0,1-23.7,28.868,217.642,217.642,0,0,1-33.886,29.049A173.428,173.428,0,0,1,476.2,413.19a551.694,551.694,0,0,1,38.659,74.871C541.315,477.377,562.248,459.967,576.369,445.523Z" fill="#fff" opacity="0.08"/>
    <path d="M632.307,500.332a399.153,399.153,0,0,0-24.975-78.048,245.6,245.6,0,0,1-24.6,29.462,208.039,208.039,0,0,1-39.379,31.848,166.561,166.561,0,0,1-25.044,12.7,757.892,757.892,0,0,1,33.167,101.192A338.707,338.707,0,0,0,632.307,500.332Z" fill="#fff" opacity="0.08"/>
    <path d="M271.11,516.673c16.611-22.5,28.985-48.649,30.746-77.61,0,0-29.376-.668-42.729-6.677,0,0-5.937,19.608-37.232,36.507a152.964,152.964,0,0,0,14.076,18.9A135.139,135.139,0,0,0,271.11,516.673Z" fill="#fff" opacity="0.08"/>
    <path d="M116.567,536.624a263.579,263.579,0,0,1-27.4-43.782q-16.44-.3-35.006-1.7s40.727,96.14,112.164,112.832c0,0,5.163-2.636,13.469-7.635q-8.962-6.036-17.43-12.815A272.735,272.735,0,0,1,116.567,536.624Z" fill="#fff" opacity="0.08"/>
    <path d="M265.6,523.823q-3.764-2.162-7.414-4.593a146.333,146.333,0,0,1-29.12-25.817,161.793,161.793,0,0,1-15.186-20.523c-13.693,6.3-31.394,11.928-54.218,15.605a354.1,354.1,0,0,0,24.671,32.411c11.43,13.285,26.883,28.916,44.349,40.383A280.478,280.478,0,0,0,265.6,523.823Z" fill="#fff" opacity="0.08"/>
    <path d="M177.48,526.594a360.991,360.991,0,0,1-27.592-36.689,401.872,401.872,0,0,1-50.677,3.027,259.66,259.66,0,0,0,24.621,38.539,262.6,262.6,0,0,0,64.328,59.671,380.847,380.847,0,0,0,33.334-23.916q-4.393-2.991-8.813-6.435A249.919,249.919,0,0,1,177.48,526.594Z" fill="#fff" opacity="0.08"/>
    <path d="M120.581,391.835a252.7,252.7,0,0,1-.859-29.969,358.8,358.8,0,0,1-62.936-31.194,259.652,259.652,0,0,0,.884,37.112,274.442,274.442,0,0,0,25.446,92.635,168.271,168.271,0,0,0,53.885,1.7,228.334,228.334,0,0,1-9.565-29.362A257.215,257.215,0,0,1,120.581,391.835Z" fill="#fff" opacity="0.04"/>
    <path d="M48.78,368.319a258.285,258.285,0,0,1-.576-43.114,325.2,325.2,0,0,1-32.23-23.7C5.832,377.449,32.741,442.03,32.741,442.03A179,179,0,0,0,72.1,457.865a273.153,273.153,0,0,1-14.058-38.947A288.738,288.738,0,0,1,48.78,368.319Z" fill="#fff" opacity="0.04"/>
    <path d="M179.158,376.5A245.128,245.128,0,0,1,128.556,365a247.246,247.246,0,0,0,.914,26.311c1.565,17.89,5.76,43.323,16.585,69.421a200.63,200.63,0,0,0,50.939-16.639,187.15,187.15,0,0,1-15.372-46.622A151.592,151.592,0,0,1,179.158,376.5Z" fill="#fff" opacity="0.04"/>
    <path d="M272.56,380.8c0-22.366,12.977-37.552,33.687-46.664v-.829c-18.776-9.111-27.336-24.022-27.336-39.761,0-29.269,25.955-49.149,59.918-49.149,38.657,0,56.328,23.194,56.328,45.283,0,15.187-8.007,30.926-27.612,40.59v.829c19.6,7.455,34.239,22.918,34.239,45.283,0,32.03-27.059,53.568-65.44,53.568C294.373,429.949,272.56,405.926,272.56,380.8Zm94.709-1.657c0-18.223-13.53-28.164-33.41-33.686-16.844,4.97-26.508,16.567-26.508,31.477-.552,15.187,11.045,28.993,30.1,28.993C355.4,405.926,367.269,394.605,367.269,379.142Zm-56.052-86.977c0,14.634,12.149,23.47,29.269,28.164,12.149-3.59,22.365-13.53,22.365-27.06,0-12.425-7.455-25.4-25.679-25.4C320.053,267.866,311.217,279.187,311.217,292.165Z" opacity="0.76"/>
  </g>
</svg>
