<svg xmlns="http://www.w3.org/2000/svg" xmlns:xlink="http://www.w3.org/1999/xlink" viewBox="0 0 103.083 141.083" fill="#fff" fill-rule="evenodd" stroke="#000" stroke-linecap="round" stroke-linejoin="round"><use xlink:href="#A" x="1.042" y="1.042"/><symbol id="A" overflow="visible"><g stroke="none" fill-rule="nonzero"><path d="M4.221 60.417l65.542 35.146s-17.975 7.563-40.198-2.333c0 0-18.577-11.285-25.346-32.812z" fill="#a57939"/><g fill="#ea5a47"><path d="M79.275 92.34l-.785.658c-10.01 7.646-25.215 6.675-38.844 3.5l-.163-.021s-2.375-.39-3.385 1.871l-14.5-7.717c1.3-2.108-.236-3.735-.236-3.735l-.077-.079C6.131 72.9-1.563 55.75 9.335 35.15 22.042 11.138 46.737-10.242 76.052 5.267c23.542 12.458 27.913 34.869 22.052 55.063 0 0-5.187 20-18.827 32.01z"/><path d="M69.764 95.563L4.989 61.292"/></g><path d="M20.379 137.855l8.542-18.513 16.24-36.798-13.612-7.202-21.329 34.104-9.673 15.348c-.6 1.008-.625 1.554-.454 2.396.154.869.896 1.771 1.879 2.619 0 0 2.854 2.95 8.604 5.479 0 0 8.338 3.902 9.808 2.563z" fill="#a57939"/><use xlink:href="#C"/></g><g fill="none" stroke-width="4.167"><path d="M36.1 98.35c1.011-2.26 3.386-1.871 3.386-1.871l.163.021c14 3.258 27.183 2.6 37.567-5.14m-55.617-.729c1.3-2.108-.235-3.735-.235-3.735l-.077-.079C6.129 72.902-1.563 55.75 9.337 35.152c12.708-24.015 37.4-45.396 66.712-29.881 23.542 12.458 25.996 33.994 20.136 54.167"/><path d="M69.764 95.563L4.989 61.292"/><path d="M19.362 136.075l8.319-18.85L43.552 81.69l-12.354-6.537-20.489 33.092-9.292 14.896c-.577.979-.594 1.5-.479 2.298.121.825.783 1.667 1.667 2.454 0 0 3.45 3.167 8.688 5.444"/><use xlink:href="#C"/></g></symbol><defs ><path id="C" d="M78.675 76.836c0-5.771 4.646-10.417 10.417-10.417s10.417 4.646 10.417 10.417-4.646 10.417-10.417 10.417-10.417-4.646-10.417-10.417z"/></defs></svg>