<?xml version="1.0" encoding="iso-8859-1"?>
<!-- Generator: Adobe Illustrator 25.2.1, SVG Export Plug-In . SVG Version: 6.00 Build 0)  -->
<svg version="1.1" id="Layer_1" xmlns="http://www.w3.org/2000/svg" xmlns:xlink="http://www.w3.org/1999/xlink" x="0px" y="0px"
	 viewBox="0 0 714 714" style="enable-background:new 0 0 714 714;" xml:space="preserve">
<g>
	<circle style="fill:#CCD82B;" cx="356.971" cy="363.817" r="239.231"/>
	<path style="fill:#D8ED3A;" d="M560.74,284.209c0-13.929-1.325-27.517-3.23-40.918c-40.948-68.024-115.277-113.678-200.46-113.678
		c-129.272,0-234.064,104.795-234.064,234.066c0,90.599,51.564,169.016,126.865,207.921c7.404,0.569,14.818,1.129,22.37,1.129
		C431.565,572.729,560.74,443.554,560.74,284.209z"/>
	<path style="fill:#FFFFF8;" d="M488.294,363.817c0-56.604,19.382-108.652,51.588-150.3c-8.255-10.035-17.464-19.22-27.237-27.772
		c-39.234,48.826-62.861,110.707-62.861,178.072s23.627,129.246,62.861,178.072c9.773-8.552,18.982-17.737,27.237-27.772
		C507.676,472.47,488.294,420.421,488.294,363.817z"/>
	<path style="fill:#FFFFF8;" d="M178.047,209.126c34.256,42.327,54.874,96.122,54.874,154.691s-20.618,112.364-54.874,154.691
		c8.457,9.774,17.586,18.947,27.524,27.224c41.086-49.388,65.86-112.8,65.86-181.915s-24.774-132.527-65.86-181.915
		C195.634,190.179,186.504,199.351,178.047,209.126z"/>
	<path d="M356.971,119.424c-134.759,0-244.394,109.634-244.394,244.393s109.635,244.394,244.394,244.394
		s244.394-109.635,244.394-244.394S491.731,119.424,356.971,119.424z M540.062,509.47c-31.944-42.529-48.817-92.807-48.817-145.653
		c0-52.846,16.873-103.125,48.817-145.652c31.888,40.002,50.977,90.637,50.977,145.652
		C591.04,418.833,571.951,469.467,540.062,509.47z M536.108,213.594c-33.219,43.772-50.763,95.663-50.763,150.223
		s17.544,106.451,50.763,150.225c-6.733,7.994-14.322,15.744-23.087,23.577c-39.453-50.164-60.286-110.189-60.286-173.802
		c0-63.612,20.833-123.637,60.286-173.802C521.789,197.852,529.378,205.603,536.108,213.594z M181.892,518.427
		c34.829-43.928,53.98-98.73,53.98-154.61s-19.15-110.681-53.98-154.609c7.525-8.536,15.346-16.297,23.301-23.123
		c40.836,50.156,63.289,113.15,63.289,177.732c0,64.584-22.452,127.577-63.289,177.732
		C197.238,534.724,189.418,526.963,181.892,518.427z M177.724,213.472c33.709,42.788,52.247,96.044,52.247,150.345
		c0,54.302-18.538,107.558-52.246,150.347c-34.193-40.699-54.822-93.155-54.822-150.347
		C122.903,306.626,143.532,254.171,177.724,213.472z M209.566,545.496c41.808-51.243,64.815-115.642,64.815-181.679
		c0-66.035-23.007-130.435-64.815-181.678c40.271-32.736,91.582-52.389,147.405-52.389c57.896,0,110.941,21.139,151.847,56.09
		c-40.552,51.322-61.985,112.803-61.985,177.977c0,65.176,21.433,126.656,61.985,177.978
		c-40.906,34.952-93.951,56.091-151.847,56.091C301.149,597.885,249.837,578.232,209.566,545.496z"/>
	<path style="fill:#F6FF85;" d="M184.496,259.485c10.628,3.774,4.713,24.563-4.191,49.638s-17.425,44.938-28.053,41.164
		s-19.338-29.757-10.434-54.831S173.868,255.711,184.496,259.485z"/>
</g>
</svg>
